<svg width="58" height="50" viewBox="0 0 58 50" fill="none" xmlns="http://www.w3.org/2000/svg">
<path opacity="0.5" fill-rule="evenodd" clip-rule="evenodd" d="M6 3C6 4.65685 4.65685 6 3 6C1.34315 6 0 4.65685 0 3C0 1.34315 1.34315 0 3 0C4.65685 0 6 1.34315 6 3ZM6 14C6 15.6569 4.65685 17 3 17C1.34315 17 0 15.6569 0 14C0 12.3431 1.34315 11 3 11C4.65685 11 6 12.3431 6 14ZM3 28C4.65685 28 6 26.6569 6 25C6 23.3431 4.65685 22 3 22C1.34315 22 0 23.3431 0 25C0 26.6569 1.34315 28 3 28ZM6 36C6 37.6569 4.65685 39 3 39C1.34315 39 0 37.6569 0 36C0 34.3431 1.34315 33 3 33C4.65685 33 6 34.3431 6 36ZM3 50C4.65685 50 6 48.6569 6 47C6 45.3431 4.65685 44 3 44C1.34315 44 0 45.3431 0 47C0 48.6569 1.34315 50 3 50ZM19 3C19 4.65685 17.6569 6 16 6C14.3431 6 13 4.65685 13 3C13 1.34315 14.3431 0 16 0C17.6569 0 19 1.34315 19 3ZM16 17C17.6569 17 19 15.6569 19 14C19 12.3431 17.6569 11 16 11C14.3431 11 13 12.3431 13 14C13 15.6569 14.3431 17 16 17ZM19 25C19 26.6569 17.6569 28 16 28C14.3431 28 13 26.6569 13 25C13 23.3431 14.3431 22 16 22C17.6569 22 19 23.3431 19 25ZM16 39C17.6569 39 19 37.6569 19 36C19 34.3431 17.6569 33 16 33C14.3431 33 13 34.3431 13 36C13 37.6569 14.3431 39 16 39ZM19 47C19 48.6569 17.6569 50 16 50C14.3431 50 13 48.6569 13 47C13 45.3431 14.3431 44 16 44C17.6569 44 19 45.3431 19 47ZM29 6C30.6569 6 32 4.65685 32 3C32 1.34315 30.6569 0 29 0C27.3431 0 26 1.34315 26 3C26 4.65685 27.3431 6 29 6ZM32 14C32 15.6569 30.6569 17 29 17C27.3431 17 26 15.6569 26 14C26 12.3431 27.3431 11 29 11C30.6569 11 32 12.3431 32 14ZM29 28C30.6569 28 32 26.6569 32 25C32 23.3431 30.6569 22 29 22C27.3431 22 26 23.3431 26 25C26 26.6569 27.3431 28 29 28ZM32 36C32 37.6569 30.6569 39 29 39C27.3431 39 26 37.6569 26 36C26 34.3431 27.3431 33 29 33C30.6569 33 32 34.3431 32 36ZM29 50C30.6569 50 32 48.6569 32 47C32 45.3431 30.6569 44 29 44C27.3431 44 26 45.3431 26 47C26 48.6569 27.3431 50 29 50ZM45 3C45 4.65685 43.6569 6 42 6C40.3431 6 39 4.65685 39 3C39 1.34315 40.3431 0 42 0C43.6569 0 45 1.34315 45 3ZM42 17C43.6569 17 45 15.6569 45 14C45 12.3431 43.6569 11 42 11C40.3431 11 39 12.3431 39 14C39 15.6569 40.3431 17 42 17ZM45 25C45 26.6569 43.6569 28 42 28C40.3431 28 39 26.6569 39 25C39 23.3431 40.3431 22 42 22C43.6569 22 45 23.3431 45 25ZM42 39C43.6569 39 45 37.6569 45 36C45 34.3431 43.6569 33 42 33C40.3431 33 39 34.3431 39 36C39 37.6569 40.3431 39 42 39ZM45 47C45 48.6569 43.6569 50 42 50C40.3431 50 39 48.6569 39 47C39 45.3431 40.3431 44 42 44C43.6569 44 45 45.3431 45 47ZM55 6C56.6569 6 58 4.65685 58 3C58 1.34315 56.6569 0 55 0C53.3431 0 52 1.34315 52 3C52 4.65685 53.3431 6 55 6ZM58 14C58 15.6569 56.6569 17 55 17C53.3431 17 52 15.6569 52 14C52 12.3431 53.3431 11 55 11C56.6569 11 58 12.3431 58 14ZM55 28C56.6569 28 58 26.6569 58 25C58 23.3431 56.6569 22 55 22C53.3431 22 52 23.3431 52 25C52 26.6569 53.3431 28 55 28ZM58 36C58 37.6569 56.6569 39 55 39C53.3431 39 52 37.6569 52 36C52 34.3431 53.3431 33 55 33C56.6569 33 58 34.3431 58 36ZM55 50C56.6569 50 58 48.6569 58 47C58 45.3431 56.6569 44 55 44C53.3431 44 52 45.3431 52 47C52 48.6569 53.3431 50 55 50Z" fill="white"/>
</svg>
