<svg width="41" height="41" viewBox="0 0 41 41" fill="none" xmlns="http://www.w3.org/2000/svg">
<path d="M41 20.5C41 24.5545 39.7977 28.518 37.5451 31.8892C35.2926 35.2604 32.0909 37.8879 28.345 39.4395C24.5991 40.9911 20.4773 41.3971 16.5007 40.6061C12.524 39.8151 8.8713 37.8627 6.00432 34.9957C3.13734 32.1287 1.18491 28.476 0.393913 24.4993C-0.397083 20.5227 0.00888443 16.4009 1.56048 12.655C3.11208 8.9091 5.73961 5.70744 9.11082 3.45487C12.482 1.2023 16.4455 0 20.5 0C25.9369 0 31.1512 2.15981 34.9957 6.00431C38.8402 9.8488 41 15.0631 41 20.5ZM32.2143 19.0357H14.4232L22.5939 10.8255L20.5 8.78571L8.78572 20.5L20.5 32.2143L22.5939 30.1247L14.4232 21.9643H32.2143V19.0357Z" fill="white" fill-opacity="0.5"/>
</svg>
