<svg width="41" height="41" viewBox="0 0 41 41" fill="none" xmlns="http://www.w3.org/2000/svg">
<path d="M0 20.5C0 24.5545 1.2023 28.518 3.45487 31.8892C5.70744 35.2604 8.9091 37.8879 12.655 39.4395C16.4009 40.9911 20.5227 41.3971 24.4993 40.6061C28.476 39.8151 32.1287 37.8627 34.9957 34.9957C37.8627 32.1287 39.8151 28.476 40.6061 24.4993C41.3971 20.5227 40.9911 16.4009 39.4395 12.655C37.8879 8.9091 35.2604 5.70744 31.8892 3.45487C28.518 1.2023 24.5545 0 20.5 0C15.0631 0 9.8488 2.15981 6.00431 6.00431C2.15981 9.8488 0 15.0631 0 20.5ZM8.78571 19.0357H26.5768L18.4061 10.8255L20.5 8.78571L32.2143 20.5L20.5 32.2143L18.4061 30.1247L26.5768 21.9643H8.78571V19.0357Z" fill="white"/>
</svg>
